# xmcd CD database file
#
# Track frame offsets:
#	150
#	9972
#	49315
#	72840
#	89195
#	113632
#	139205
#	171232
#	192185
#	225005
#	274095
#	303285
#
# Disc length: 4268 seconds
#
# Revision: 0
# Processed by: cddbd v1.5.2PL0 Copyright (c) Steve Scherf et al.
# Submitted via: CDex 1.70beta2
#
DISCID=9c10aa0c
DTITLE=Ariyo's Shuffle - Shuffle
DYEAR=1990
DGENRE=Blues
TTITLE0=Ariyo's Stomp
TTITLE1=Cissy Strut
TTITLE2=DAIMONJI
TTITLE3=Drinnk Muddy Water
TTITLE4=I'm A Woman(Hoochie Coochie)
TTITLE5=Sweet Home Chicago
TTITLE6=A Fool For You
TTITLE7=Good Time Rolls
TTITLE8=Drown in my own Tears
TTITLE9=Whole Lotta Shakin'
TTITLE10=SUKIYAKI blues
TTITLE11=Iyannatta～Trouble In Mind
EXTD=YEAR: 1990
EXTT0=
EXTT1=
EXTT2=
EXTT3=
EXTT4=
EXTT5=
EXTT6=
EXTT7=
EXTT8=
EXTT9=
EXTT10=
EXTT11=
PLAYORDER=
